<svg data-v-0dd9719b="" version="1.0" xmlns="http://www.w3.org/2000/svg" xmlns:xlink="http://www.w3.org/1999/xlink" width="100%" height="100%" viewBox="0 0 340.000000 250.000000" preserveAspectRatio="xMidYMid meet" color-interpolation-filters="sRGB" style="margin: auto;"> <rect data-v-0dd9719b="" x="0" y="0" width="100%" height="100%" fill="#ffffff" fill-opacity="1" class="background"></rect> <rect data-v-0dd9719b="" x="0" y="0" width="100%" height="100%" fill="url(#watermark)" fill-opacity="1" class="watermarklayer"></rect> <g data-v-0dd9719b="" fill="#333" class="icon-text-wrapper icon-svg-group iconsvg" transform="translate(53.17500305175781,95.6529712677002)"><g class="iconsvg-imagesvg" transform="translate(0,0)"><g><rect fill="#333" fill-opacity="0" stroke-width="2" x="0" y="0" width="60" height="58.69405722670579" class="image-rect"></rect> <svg x="0" y="0" width="60" height="58.69405722670579" filtersec="colorsb6327658922" class="image-svg-svg primary" style="overflow: visible;"><svg xmlns="http://www.w3.org/2000/svg" viewBox="0 0 102 99.77999877929688"><title>资源 2</title><path fill="#291d6c" d="M0 31.04h22.17v68.74H0zM79.83 0H102v68.74H79.83z"></path><path fill="#74c7fd" d="M102 77.61v22.17H28.83V77.61zM73.17 0v22.17H0V0z"></path><path fill="#d92d62" d="M31.04 31.04h39.91v37.7H31.04z"></path></svg></svg> <!----></g></g> <g transform="translate(67,1.9107799530029297)"><g data-gra="path-name" fill-rule="" class="tp-name iconsvg-namesvg" transform="translate(0,0)"><g transform="scale(1)"><g><path d="M13.78-30.44C11.76-31.9 8.54-34 6.35-35.03L2.7-29.79C4.77-28.63 8.54-26.1 10.26-24.73ZM37.95-34.3L14.77-34.3 14.77-17 37.95-17ZM30.99-29.11L30.99-27.39 21.64-27.39 21.64-29.11ZM13.01-20.43C11.08-21.94 7.94-24 5.54-25.37L1.8-20.05C3.61-18.8 7.08-16.23 9.36-14.3ZM21.64-21.59L21.64-23.35 30.99-23.35 30.99-21.59ZM38.81-2.49L38.81-15.11 13.87-15.11 13.87-2.49 11.59-2.49 11.59 4.12 41 4.12 41-2.49ZM6.01-13.65C5.19-8.76 3.56-2.1 1.97 2.96L8.8 4.89C9.7 0.9 11.55-7.51 12.36-11.85ZM18.76-9.19L20.99-9.19 20.99-2.49 18.76-2.49ZM27.26-2.49L25.07-2.49 25.07-9.19 27.26-9.19ZM33.36-2.49L31.21-2.49 31.21-9.19 33.36-9.19ZM75.47-35.03L75.47-18.46C74.31-21.51 73.15-24.64 72.25-26.57L70.1-25.67 70.1-34 63.75-34.17 63.75-20.26C62.85-22.67 61.9-25.03 61.17-26.57L58.9-25.54 58.9-34.86 52.33-35.03 52.33-17.73C52.33-9.27 49.97-3.99 44.82 0.94L51.56 4.72C57.05-1.46 58.9-7.43 58.9-17.56L58.9-17.94C59.8-15.24 60.7-12.54 61.43-10.47L63.75-11.68 63.75 2.96 70.1 2.96 70.1-17.39C70.96-14.85 71.82-12.36 72.51-10.47L75.47-12.02 75.47 4.38 81.82 4.38 81.82-34.86ZM46.23-26.96C45.76-22.49 44.73-15.71 43.7-11.59L49.45-10.39C50.14-13.91 51.43-22.24 51.77-26.32ZM100.63-30.01C98.91-31.38 94.49-33.91 92.56-34.94L88.82-29.32C91.22-27.95 95.35-25.29 97.06-24.04ZM116.81-8.97C120.37-14.17 122.56-19.62 123.81-25.59L123.81-32.93 101.74-32.93 101.74-25.84 116.51-25.84C115.61-21.85 114.11-18.16 111.92-14.68 109.81-17.6 107.97-20.95 106.46-24.73L100.24-22.19C101.83-17.56 104.28-13.01 107.37-8.84 104.62-6.05 101.4-3.48 97.58-1.2L102.6 4.81C106.34 2.28 109.38-0.3 112.09-3.18 115.18 0.09 118.44 2.83 121.7 4.85L126.34-1.63C122.73-3.91 119.56-6.22 116.81-8.97ZM99.12-18.85C96.72-20.65 93.03-22.97 90.71-24.26L86.85-18.55C88.95-17.26 92.73-14.72 95.22-12.79ZM93.16-11.12C92.13-8.07 88.99-1.37 87.28 1.59L93.93 4.72C95.22 1.93 98.48-5.24 99.6-8.07ZM152.14-2.36L152.14-4.68 165.36-4.68 165.36-10.39 152.14-10.39 152.14-12.71 165.15-12.71 165.15-34 132.31-34 132.31-12.71 145.4-12.71 145.4-10.39 132.09-10.39 132.09-4.68 145.4-4.68 145.4-2.36 129-2.36 129 3.78 168.45 3.78 168.45-2.36ZM145.4-27.6L145.4-25.24 139.22-25.24 139.22-27.6ZM158.24-25.24L152.14-25.24 152.14-27.6 158.24-27.6ZM139.22-18.37L139.22-20.73 145.4-20.73 145.4-18.37ZM152.14-18.37L152.14-20.73 158.24-20.73 158.24-18.37Z" transform="translate(-1.7999999523162842, 35.029998779296875)"></path></g> <!----> <!----> <!----> <!----> <!----> <!----> <!----></g></g> <g data-gra="path-slogan" fill-rule="" class="tp-slogan iconsvg-slogansvg" fill="#333" transform="translate(5,46.91999816894531)"><rect x="0" height="1" y="3.9750003814697266" width="25.824996948242188"></rect> <rect height="1" y="3.9750003814697266" width="25.824996948242188" x="130.8249969482422"></rect> <g transform="translate(28.824996948242188,0)"><g transform="scale(1)"><path d="M5.67-7.13L5.63-7.13L3.66 0L2.44 0L0.19-8.58L1.41-8.58L3.05-1.59L3.09-1.59L5.02-8.58L6.28-8.58L8.20-1.59L8.25-1.59L9.84-8.58L11.11-8.58L8.86 0L7.64 0L5.67-7.13ZM13.50-1.03L18.66-1.03L18.66 0L12.33 0L12.33-8.58L18.56-8.58L18.56-7.59L13.50-7.59L13.50-4.92L18.19-4.92L18.19-3.89L13.50-3.89L13.50-1.03ZM21.56-8.58L25.88-1.64L25.88-8.58L27-8.58L27 0L25.69 0L21.33-6.94L21.28-6.94L21.28 0L20.16 0L20.16-8.58L21.56-8.58ZM29.63-1.03L34.92-1.03L34.92 0L28.17 0L28.17-0.94L33.42-7.59L28.55-7.59L28.55-8.58L34.92-8.58L34.92-7.59L29.63-1.03ZM37.22-5.06L41.72-5.06L41.72-8.58L42.89-8.58L42.89 0L41.72 0L41.72-3.98L37.22-3.98L37.22 0L36.05 0L36.05-8.58L37.22-8.58L37.22-5.06ZM51.47-4.27L51.47-4.27Q51.28-7.64 48.47-7.83L48.47-7.83Q45.61-7.69 45.47-4.27L45.47-4.27Q45.61-0.94 48.47-0.80L48.47-0.80Q51.28-0.98 51.47-4.27ZM52.64-4.27L52.64-4.27Q52.36 0 48.47 0.14L48.47 0.14Q44.53 0 44.25-4.27L44.25-4.27Q44.48-8.72 48.47-8.81L48.47-8.81Q52.36-8.67 52.64-4.27ZM59.67-3.19L59.67-8.58L60.84-8.58L60.84-3.05Q60.70 0.05 57.33 0.14L57.33 0.14Q54.19 0.05 54.05-2.86L54.05-2.86L54.05-8.58L55.22-8.58L55.22-3.19Q55.27-0.84 57.38-0.80L57.38-0.80Q59.67-0.84 59.67-3.19L59.67-3.19ZM67.13-5.06L71.63-5.06L71.63-8.58L72.80-8.58L72.80 0L71.63 0L71.63-3.98L67.13-3.98L67.13 0L65.95 0L65.95-8.58L67.13-8.58L67.13-5.06ZM80.25 0L79.41-2.48L75.94-2.48L75.05 0L73.88 0L77.11-8.58L78.42-8.58L81.52 0L80.25 0ZM77.67-7.31L76.31-3.52L78.98-3.52L77.72-7.31L77.67-7.31ZM83.95-8.58L88.27-1.64L88.27-8.58L89.39-8.58L89.39 0L88.08 0L83.72-6.94L83.67-6.94L83.67 0L82.55 0L82.55-8.58L83.95-8.58ZM91.17-8.58L92.34-8.58L92.34-1.03L96.70-1.03L96.70 0L91.17 0L91.17-8.58ZM98.02-8.58L99.19-8.58L99.19 0L98.02 0L98.02-8.58Z" transform="translate(-0.1875, 8.8125)"></path></g></g></g></g></g><defs v-gra="od"></defs></svg>